<svg xmlns="http://www.w3.org/2000/svg" xmlns:xlink="http://www.w3.org/1999/xlink" width="500" zoomAndPan="magnify" viewBox="0 0 375 374.999991" height="500" preserveAspectRatio="xMidYMid meet" version="1.0"><defs><g/><clipPath id="b2bd88975e"><path d="M 2 119 L 374 119 L 374 256 L 2 256 Z M 2 119 " clip-rule="nonzero"/></clipPath><clipPath id="b59596081a"><path d="M 36.925781 -10.371094 L 395.484375 50.871094 L 338.28125 385.769531 L -20.273438 324.527344 Z M 36.925781 -10.371094 " clip-rule="nonzero"/></clipPath><clipPath id="449f29c2bc"><path d="M 36.925781 -10.371094 L 395.484375 50.871094 L 338.28125 385.769531 L -20.273438 324.527344 Z M 36.925781 -10.371094 " clip-rule="nonzero"/></clipPath><clipPath id="1789b24c18"><path d="M 43 206 L 318 206 L 318 334 L 43 334 Z M 43 206 " clip-rule="nonzero"/></clipPath><clipPath id="e4f5ab19e5"><path d="M 36.925781 -10.371094 L 395.484375 50.871094 L 338.28125 385.769531 L -20.273438 324.527344 Z M 36.925781 -10.371094 " clip-rule="nonzero"/></clipPath><clipPath id="54248212e5"><path d="M 36.925781 -10.371094 L 395.484375 50.871094 L 338.28125 385.769531 L -20.273438 324.527344 Z M 36.925781 -10.371094 " clip-rule="nonzero"/></clipPath><clipPath id="b967c9d6b6"><path d="M 57 41 L 333 41 L 333 169 L 57 169 Z M 57 41 " clip-rule="nonzero"/></clipPath><clipPath id="6ce68e1e65"><path d="M 36.925781 -10.371094 L 395.484375 50.871094 L 338.28125 385.769531 L -20.273438 324.527344 Z M 36.925781 -10.371094 " clip-rule="nonzero"/></clipPath><clipPath id="6cbfa42a16"><path d="M 36.925781 -10.371094 L 395.484375 50.871094 L 338.28125 385.769531 L -20.273438 324.527344 Z M 36.925781 -10.371094 " clip-rule="nonzero"/></clipPath><clipPath id="5f2c050e96"><path d="M 100 216 L 261 216 L 261 281 L 100 281 Z M 100 216 " clip-rule="nonzero"/></clipPath><clipPath id="68510f2781"><path d="M 36.925781 -10.371094 L 395.484375 50.871094 L 338.28125 385.769531 L -20.273438 324.527344 Z M 36.925781 -10.371094 " clip-rule="nonzero"/></clipPath><clipPath id="b97477ae27"><path d="M 36.925781 -10.371094 L 395.484375 50.871094 L 338.28125 385.769531 L -20.273438 324.527344 Z M 36.925781 -10.371094 " clip-rule="nonzero"/></clipPath><clipPath id="859bea8801"><path d="M 114 95 L 276 95 L 276 159 L 114 159 Z M 114 95 " clip-rule="nonzero"/></clipPath><clipPath id="57b49684f9"><path d="M 36.925781 -10.371094 L 395.484375 50.871094 L 338.28125 385.769531 L -20.273438 324.527344 Z M 36.925781 -10.371094 " clip-rule="nonzero"/></clipPath><clipPath id="545e1d85e8"><path d="M 36.925781 -10.371094 L 395.484375 50.871094 L 338.28125 385.769531 L -20.273438 324.527344 Z M 36.925781 -10.371094 " clip-rule="nonzero"/></clipPath><clipPath id="bd38294e7f"><path d="M 18 202 L 343 202 L 343 358 L 18 358 Z M 18 202 " clip-rule="nonzero"/></clipPath><clipPath id="7d927a25ef"><path d="M 36.925781 -10.371094 L 395.484375 50.871094 L 338.28125 385.769531 L -20.273438 324.527344 Z M 36.925781 -10.371094 " clip-rule="nonzero"/></clipPath><clipPath id="040087a00c"><path d="M 36.925781 -10.371094 L 395.484375 50.871094 L 338.28125 385.769531 L -20.273438 324.527344 Z M 36.925781 -10.371094 " clip-rule="nonzero"/></clipPath><clipPath id="cc05bf60d4"><path d="M 32 17 L 358 17 L 358 173 L 32 173 Z M 32 17 " clip-rule="nonzero"/></clipPath><clipPath id="21b0c2fcdb"><path d="M 36.925781 -10.371094 L 395.484375 50.871094 L 338.28125 385.769531 L -20.273438 324.527344 Z M 36.925781 -10.371094 " clip-rule="nonzero"/></clipPath><clipPath id="4797562dbb"><path d="M 36.925781 -10.371094 L 395.484375 50.871094 L 338.28125 385.769531 L -20.273438 324.527344 Z M 36.925781 -10.371094 " clip-rule="nonzero"/></clipPath></defs><rect x="-37.5" width="450" fill="#ffffff" y="-37.499999" height="449.999989" fill-opacity="1"/><rect x="-37.5" width="450" fill="#ffffff" y="-37.499999" height="449.999989" fill-opacity="1"/><rect x="-37.5" width="450" fill="#ffffff" y="-37.499999" height="449.999989" fill-opacity="1"/><g clip-path="url(#b2bd88975e)"><g clip-path="url(#b59596081a)"><g clip-path="url(#449f29c2bc)"><path fill="#ffffff" d="M 14.851562 119.828125 C 15.859375 119.9375 16.882812 119.980469 17.882812 120.152344 C 135.121094 140.167969 252.355469 160.191406 369.589844 180.214844 C 370.679688 180.402344 371.761719 180.585938 373.039062 180.804688 C 368.773438 205.78125 364.546875 230.519531 360.265625 255.574219 C 359.210938 255.425781 358.140625 255.3125 357.070312 255.128906 C 324.5 249.566406 291.941406 244.007812 259.375 238.441406 C 174.796875 223.996094 90.21875 209.550781 5.640625 195.113281 C 4.460938 194.914062 3.25 194.847656 2.058594 194.71875 C 6.320312 169.761719 10.585938 144.792969 14.851562 119.828125 Z M 14.851562 119.828125 " fill-opacity="1" fill-rule="nonzero"/></g></g></g><g clip-path="url(#1789b24c18)"><g clip-path="url(#e4f5ab19e5)"><g clip-path="url(#54248212e5)"><path fill="#ffffff" d="M 317.84375 253.5625 C 292.660156 305.300781 229.605469 345.972656 156.847656 330.460938 C 88.613281 315.910156 48.492188 258.199219 43.066406 206.699219 C 43.800781 206.742188 44.519531 206.722656 45.203125 206.839844 C 60.621094 209.464844 76.023438 212.132812 91.453125 214.699219 C 93.257812 214.996094 94.082031 215.707031 94.6875 217.496094 C 104.1875 245.566406 122.238281 266.214844 149.667969 277.511719 C 182.535156 291.050781 214.132812 287.441406 243.703125 267.5625 C 252.191406 261.859375 259.378906 254.703125 265.519531 246.53125 C 266.46875 245.265625 267.335938 244.71875 268.980469 245.011719 C 284.476562 247.71875 299.984375 250.347656 315.492188 253.007812 C 316.214844 253.128906 316.921875 253.34375 317.84375 253.5625 Z M 317.84375 253.5625 " fill-opacity="1" fill-rule="nonzero"/></g></g></g><g clip-path="url(#b967c9d6b6)"><g clip-path="url(#6ce68e1e65)"><g clip-path="url(#6cbfa42a16)"><path fill="#ffffff" d="M 57.488281 121.777344 C 81.308594 72.160156 141.929688 31.105469 213.152344 43.808594 C 286.101562 56.820312 327.070312 117.636719 332.21875 168.691406 C 315.324219 165.804688 298.480469 162.929688 281.40625 160.011719 C 280.8125 158.300781 280.230469 156.457031 279.539062 154.644531 C 267.996094 124.5 247.09375 103.882812 216.214844 94.335938 C 176.699219 82.109375 135.34375 95.691406 109.9375 128.5 C 108.746094 130.03125 107.730469 130.550781 105.789062 130.210938 C 90.484375 127.515625 75.164062 124.925781 59.835938 122.308594 C 59.132812 122.1875 58.429688 121.988281 57.488281 121.777344 Z M 57.488281 121.777344 " fill-opacity="1" fill-rule="nonzero"/></g></g></g><g clip-path="url(#5f2c050e96)"><g clip-path="url(#68510f2781)"><g clip-path="url(#b97477ae27)"><path fill="#ffffff" d="M 100.183594 216.414062 C 153.785156 225.570312 207.125 234.679688 260.539062 243.804688 C 246.191406 264.222656 213.425781 285.300781 172.96875 278.816406 C 133.316406 272.472656 107.882812 242.75 100.183594 216.414062 Z M 100.183594 216.414062 " fill-opacity="1" fill-rule="nonzero"/></g></g></g><g clip-path="url(#859bea8801)"><g clip-path="url(#57b49684f9)"><g clip-path="url(#545e1d85e8)"><path fill="#ffffff" d="M 275.394531 158.976562 C 221.554688 149.777344 168.136719 140.65625 114.683594 131.523438 C 129.046875 111.128906 162.519531 88.949219 204.941406 96.949219 C 223.949219 100.53125 240.285156 109.359375 253.792969 123.234375 C 263.664062 133.378906 270.839844 145.171875 275.394531 158.976562 Z M 275.394531 158.976562 " fill-opacity="1" fill-rule="nonzero"/></g></g></g><g clip-path="url(#bd38294e7f)"><g clip-path="url(#7d927a25ef)"><g clip-path="url(#040087a00c)"><path fill="#ffffff" d="M 259.066406 332.246094 C 257.640625 336.234375 256.339844 339.90625 254.914062 343.886719 C 251.144531 342.214844 247.53125 340.617188 243.632812 338.890625 C 241.796875 342.667969 240.035156 346.304688 238.207031 350.0625 C 234.578125 347.984375 231.128906 346.007812 227.488281 343.925781 C 225.316406 347.453125 223.230469 350.828125 221 354.445312 C 217.675781 352.0625 214.460938 349.757812 211 347.269531 C 208.285156 350.324219 206.089844 353.734375 203.355469 357.042969 C 200.195312 354.21875 197.242188 351.570312 194.121094 348.785156 C 191.292969 351.769531 188.558594 354.65625 185.609375 357.765625 C 182.84375 354.734375 180.171875 351.808594 177.246094 348.59375 C 174.140625 351.238281 171.066406 353.84375 167.8125 356.601562 C 165.304688 353.175781 162.957031 349.96875 160.503906 346.613281 C 157.117188 348.929688 153.828125 351.175781 150.285156 353.597656 C 148.207031 350.0625 146.210938 346.648438 144.039062 342.941406 C 140.445312 344.871094 136.890625 346.769531 133.121094 348.777344 C 131.410156 344.988281 129.785156 341.367188 128.050781 337.507812 C 124.265625 339.066406 120.605469 340.5625 116.632812 342.1875 C 115.9375 340.121094 115.28125 338.226562 114.648438 336.320312 C 114.035156 334.472656 113.433594 332.625 112.714844 330.441406 C 108.742188 331.609375 104.878906 332.746094 100.820312 333.9375 C 99.945312 329.871094 99.109375 325.988281 98.210938 321.804688 C 94.179688 322.554688 90.292969 323.277344 86.070312 324.054688 C 85.597656 319.964844 85.125 315.96875 84.625 311.730469 C 80.449219 312.058594 76.511719 312.367188 72.328125 312.679688 C 72.304688 308.464844 72.289062 304.503906 72.265625 300.285156 C 68.117188 300.160156 64.179688 300.039062 59.949219 299.90625 C 60.34375 295.699219 60.707031 291.773438 61.097656 287.578125 C 57.007812 287.042969 53.15625 286.535156 49.21875 286.015625 C 48.808594 283.824219 49.753906 281.9375 50.117188 279.980469 C 50.472656 278.070312 50.929688 276.171875 51.394531 274.046875 C 47.589844 272.324219 43.367188 272.390625 39.398438 270.734375 C 40.625 266.894531 41.808594 263.199219 43.09375 259.195312 C 39.40625 257.503906 35.449219 256.550781 31.476562 254.894531 C 33.132812 251.109375 34.710938 247.480469 36.421875 243.570312 C 32.6875 241.789062 29.121094 240.089844 25.257812 238.246094 C 27.320312 234.640625 29.28125 231.210938 31.429688 227.46875 C 27.914062 225.308594 24.464844 223.1875 20.875 220.984375 C 23.304688 217.605469 25.621094 214.378906 28.054688 210.988281 C 24.964844 208.195312 21.445312 206.117188 18.261719 203.195312 C 18.902344 202.847656 19.226562 202.515625 19.480469 202.558594 C 25.15625 203.496094 30.824219 204.464844 36.628906 205.457031 C 41.675781 243.121094 57.917969 274.964844 86 300.53125 C 107.761719 320.34375 133.367188 332.632812 162.316406 337.476562 C 195.351562 342.996094 227.039062 338.199219 256.890625 322.824219 C 286.707031 307.488281 308.992188 284.558594 324.136719 254.5625 C 329.945312 255.554688 335.613281 256.515625 341.273438 257.523438 C 341.539062 257.566406 341.753906 257.992188 342.246094 258.515625 C 338.335938 260.273438 334.300781 260.980469 330.457031 262.703125 C 331.59375 266.601562 332.707031 270.410156 333.894531 274.449219 C 329.882812 275.3125 326.003906 276.160156 321.804688 277.066406 C 322.535156 281.085938 323.246094 284.972656 324.015625 289.234375 C 319.996094 289.679688 316.085938 290.125 311.875 290.589844 C 311.691406 294.648438 312.5625 298.570312 312.554688 302.792969 C 308.527344 303.265625 304.46875 302.726562 300.222656 303.105469 C 300.121094 307.175781 300.007812 311.113281 299.898438 315.390625 C 295.667969 314.964844 291.738281 314.566406 287.539062 314.144531 C 287 318.257812 286.496094 322.109375 285.964844 326.167969 C 281.832031 326.175781 278.046875 324.285156 273.742188 324.050781 C 272.796875 327.917969 271.855469 331.765625 270.851562 335.898438 C 266.820312 334.679688 262.988281 333.476562 259.066406 332.246094 Z M 259.066406 332.246094 " fill-opacity="1" fill-rule="nonzero"/></g></g></g><g clip-path="url(#cc05bf60d4)"><g clip-path="url(#21b0c2fcdb)"><g clip-path="url(#4797562dbb)"><path fill="#ffffff" d="M 323.878906 101.453125 C 328.039062 102.46875 331.808594 103.390625 335.929688 104.390625 C 334.667969 108.367188 333.46875 112.117188 332.183594 116.171875 C 336.027344 117.542969 339.757812 118.875 343.832031 120.324219 C 342.160156 124.140625 340.554688 127.824219 338.867188 131.675781 C 342.730469 133.53125 346.300781 135.253906 350.023438 137.050781 C 347.941406 140.695312 345.964844 144.140625 343.875 147.78125 C 347.425781 149.980469 350.800781 152.066406 354.425781 154.308594 C 351.972656 157.691406 349.648438 160.898438 347.183594 164.300781 C 350.46875 166.859375 353.644531 169.339844 357.167969 172.097656 C 356.203125 172.429688 355.710938 172.804688 355.285156 172.734375 C 349.789062 171.84375 344.292969 170.886719 338.683594 169.929688 C 333.28125 130.152344 315.714844 97.007812 285.121094 71.117188 C 261.507812 51.140625 234.050781 39.769531 203.335938 36.503906 C 141.539062 29.925781 80.363281 62.175781 51.289062 120.390625 C 49.824219 120.558594 36.390625 118.621094 34.289062 117.894531 C 33.921875 117.769531 33.65625 117.367188 32.996094 116.808594 C 37.003906 114.972656 41.046875 114.285156 44.890625 112.605469 C 43.730469 108.707031 42.597656 104.890625 41.394531 100.828125 C 45.398438 99.953125 49.265625 99.105469 53.472656 98.191406 C 52.757812 94.183594 52.058594 90.277344 51.296875 86.027344 C 55.289062 85.578125 59.210938 85.132812 63.433594 84.652344 C 63.617188 80.632812 62.714844 76.726562 62.75 72.53125 C 66.71875 71.859375 70.792969 72.609375 75.03125 72.136719 C 75.160156 68.109375 75.273438 64.164062 75.410156 59.890625 C 79.574219 60.304688 83.511719 60.703125 87.734375 61.128906 C 88.265625 57.046875 88.773438 53.125 89.296875 49.042969 C 93.371094 49.738281 97.261719 50.402344 101.515625 51.128906 C 102.457031 47.332031 103.410156 43.496094 104.433594 39.347656 C 108.390625 40.605469 112.15625 41.789062 116.167969 43.066406 C 117.5625 39.214844 118.902344 35.484375 120.367188 31.441406 C 124.132812 33.082031 127.75 34.667969 131.695312 36.394531 C 133.484375 32.679688 135.191406 29.117188 137.046875 25.242188 C 140.613281 27.289062 144.050781 29.253906 147.792969 31.402344 C 149.941406 27.914062 152.066406 24.472656 154.320312 20.828125 C 157.6875 23.269531 160.890625 25.589844 164.320312 28.085938 C 166.816406 24.859375 169.25 21.726562 171.894531 18.308594 C 174.949219 21.015625 177.898438 23.640625 181.078125 26.457031 C 184.097656 23.75 186.597656 20.527344 189.726562 17.601562 C 192.484375 20.632812 195.144531 23.558594 198.011719 26.710938 C 201.136719 24.058594 204.152344 21.503906 207.433594 18.71875 C 209.90625 22.078125 212.300781 25.324219 214.785156 28.695312 C 218.203125 26.351562 221.480469 24.109375 224.980469 21.707031 C 227.089844 25.300781 229.097656 28.722656 231.246094 32.386719 C 234.839844 30.449219 238.332031 28.566406 242.160156 26.496094 C 243.84375 30.261719 245.496094 33.953125 247.222656 37.828125 C 251.058594 36.25 254.714844 34.730469 258.640625 33.117188 C 259.988281 37.113281 261.273438 40.941406 262.589844 44.859375 C 266.617188 43.679688 270.425781 42.578125 274.449219 41.40625 C 275.34375 45.546875 276.167969 49.421875 277.046875 53.480469 C 281.183594 52.726562 285.097656 52.019531 289.234375 51.265625 C 289.679688 55.339844 290.117188 59.28125 290.59375 63.535156 C 294.691406 63.246094 298.636719 62.960938 302.929688 62.652344 C 302.953125 66.707031 302.96875 70.667969 302.984375 75.003906 C 307 75.128906 310.957031 75.253906 315.113281 75.382812 C 315.34375 79.421875 314.363281 83.3125 314.121094 87.535156 C 318.089844 88.601562 322.171875 88.625 326.394531 89.355469 C 325.570312 93.398438 324.757812 97.269531 323.878906 101.453125 Z M 323.878906 101.453125 " fill-opacity="1" fill-rule="nonzero"/></g></g></g><g fill="#0474d8" fill-opacity="1"><g transform="translate(46.402037, 181.184601)"><g><path d="M 36.109375 -12 C 35.140625 -6.300781 32.769531 -2.210938 29 0.265625 C 25.238281 2.753906 20.296875 3.472656 14.171875 2.421875 L 4.359375 0.75 L 10.28125 -33.890625 L 21.15625 -32.03125 C 26.8125 -31.0625 30.945312 -28.816406 33.5625 -25.296875 C 36.175781 -21.785156 37.023438 -17.351562 36.109375 -12 Z M 28.453125 -13.109375 C 29.734375 -20.546875 27.085938 -24.828125 20.515625 -25.953125 L 16.609375 -26.625 L 12.734375 -4.0625 L 15.890625 -3.515625 C 22.960938 -2.304688 27.148438 -5.503906 28.453125 -13.109375 Z M 28.453125 -13.109375 "/></g></g></g><g fill="#0474d8" fill-opacity="1"><g transform="translate(82.312124, 187.330183)"><g><path d="M 24.3125 4.15625 L 4.359375 0.75 L 10.28125 -33.890625 L 30.234375 -30.484375 L 29.21875 -24.46875 L 16.609375 -26.625 L 15.296875 -19.015625 L 27.03125 -17 L 26 -10.984375 L 14.265625 -13 L 12.734375 -4.0625 L 25.34375 -1.90625 Z M 24.3125 4.15625 "/></g></g></g><g fill="#0474d8" fill-opacity="1"><g transform="translate(109.481575, 191.97991)"><g><path d="M 26.453125 -5.375 C 25.921875 -2.238281 24.375 0.0351562 21.8125 1.453125 C 19.25 2.867188 15.96875 3.234375 11.96875 2.546875 C 8.269531 1.910156 5.117188 0.648438 2.515625 -1.234375 L 3.671875 -8.0625 C 5.828125 -6.613281 7.675781 -5.535156 9.21875 -4.828125 C 10.769531 -4.128906 12.21875 -3.664062 13.5625 -3.4375 C 15.164062 -3.164062 16.453125 -3.257812 17.421875 -3.71875 C 18.390625 -4.1875 18.984375 -5.03125 19.203125 -6.25 C 19.316406 -6.925781 19.226562 -7.5625 18.9375 -8.15625 C 18.644531 -8.757812 18.171875 -9.367188 17.515625 -9.984375 C 16.867188 -10.597656 15.507812 -11.632812 13.4375 -13.09375 C 11.488281 -14.457031 10.0625 -15.679688 9.15625 -16.765625 C 8.257812 -17.859375 7.597656 -19.066406 7.171875 -20.390625 C 6.753906 -21.722656 6.6875 -23.203125 6.96875 -24.828125 C 7.488281 -27.890625 8.9375 -30.117188 11.3125 -31.515625 C 13.6875 -32.921875 16.707031 -33.3125 20.375 -32.6875 C 22.175781 -32.375 23.859375 -31.863281 25.421875 -31.15625 C 26.984375 -30.445312 28.585938 -29.554688 30.234375 -28.484375 L 26.890625 -23.171875 C 25.171875 -24.242188 23.734375 -25.035156 22.578125 -25.546875 C 21.421875 -26.054688 20.257812 -26.410156 19.09375 -26.609375 C 17.707031 -26.847656 16.585938 -26.707031 15.734375 -26.1875 C 14.878906 -25.675781 14.359375 -24.894531 14.171875 -23.84375 C 14.066406 -23.195312 14.117188 -22.601562 14.328125 -22.0625 C 14.546875 -21.53125 14.941406 -20.984375 15.515625 -20.421875 C 16.097656 -19.859375 17.519531 -18.785156 19.78125 -17.203125 C 22.75 -15.109375 24.703125 -13.175781 25.640625 -11.40625 C 26.578125 -9.644531 26.847656 -7.632812 26.453125 -5.375 Z M 26.453125 -5.375 "/></g></g></g><g fill="#0474d8" fill-opacity="1"><g transform="translate(136.200953, 196.552612)"><g><path d="M 36.109375 -12 C 35.140625 -6.300781 32.769531 -2.210938 29 0.265625 C 25.238281 2.753906 20.296875 3.472656 14.171875 2.421875 L 4.359375 0.75 L 10.28125 -33.890625 L 21.15625 -32.03125 C 26.8125 -31.0625 30.945312 -28.816406 33.5625 -25.296875 C 36.175781 -21.785156 37.023438 -17.351562 36.109375 -12 Z M 28.453125 -13.109375 C 29.734375 -20.546875 27.085938 -24.828125 20.515625 -25.953125 L 16.609375 -26.625 L 12.734375 -4.0625 L 15.890625 -3.515625 C 22.960938 -2.304688 27.148438 -5.503906 28.453125 -13.109375 Z M 28.453125 -13.109375 "/></g></g></g><g fill="#0474d8" fill-opacity="1"><g transform="translate(172.111039, 202.698194)"><g><path d="M 24.3125 4.15625 L 4.359375 0.75 L 10.28125 -33.890625 L 30.234375 -30.484375 L 29.21875 -24.46875 L 16.609375 -26.625 L 15.296875 -19.015625 L 27.03125 -17 L 26 -10.984375 L 14.265625 -13 L 12.734375 -4.0625 L 25.34375 -1.90625 Z M 24.3125 4.15625 "/></g></g></g><g fill="#0474d8" fill-opacity="1"><g transform="translate(199.28049, 207.34792)"><g/></g></g><g fill="#0474d8" fill-opacity="1"><g transform="translate(211.882183, 209.504549)"><g><path d="M 20.046875 3.4375 L 12.71875 2.171875 L 16.15625 -17.875 L 16.796875 -21.140625 L 17.53125 -24.71875 C 16.101562 -23.726562 15.117188 -23.078125 14.578125 -22.765625 L 10.046875 -20.25 L 7.265625 -25.265625 L 19.953125 -32.234375 L 25.96875 -31.203125 Z M 20.046875 3.4375 "/></g></g></g><g fill="#0474d8" fill-opacity="1"><g transform="translate(239.572757, 214.24346)"><g><path d="M 29.40625 -15.40625 C 28.238281 -8.582031 25.929688 -3.734375 22.484375 -0.859375 C 19.035156 2.015625 14.398438 2.957031 8.578125 1.96875 C 6.523438 1.613281 4.976562 1.234375 3.9375 0.828125 L 4.953125 -5.046875 C 6.222656 -4.492188 7.582031 -4.09375 9.03125 -3.84375 C 11.488281 -3.414062 13.566406 -3.425781 15.265625 -3.875 C 16.972656 -4.332031 18.378906 -5.257812 19.484375 -6.65625 C 20.585938 -8.050781 21.429688 -10.085938 22.015625 -12.765625 L 21.71875 -12.8125 C 20.5625 -11.488281 19.328125 -10.628906 18.015625 -10.234375 C 16.710938 -9.847656 15.160156 -9.804688 13.359375 -10.109375 C 10.347656 -10.628906 8.140625 -12.003906 6.734375 -14.234375 C 5.328125 -16.460938 4.921875 -19.300781 5.515625 -22.75 C 6.148438 -26.457031 7.703125 -29.207031 10.171875 -31 C 12.648438 -32.800781 15.707031 -33.390625 19.34375 -32.765625 C 21.894531 -32.328125 24.023438 -31.34375 25.734375 -29.8125 C 27.453125 -28.289062 28.628906 -26.296875 29.265625 -23.828125 C 29.898438 -21.367188 29.945312 -18.5625 29.40625 -15.40625 Z M 18.453125 -26.859375 C 16.953125 -27.117188 15.6875 -26.800781 14.65625 -25.90625 C 13.625 -25.007812 12.941406 -23.578125 12.609375 -21.609375 C 12.328125 -19.941406 12.484375 -18.550781 13.078125 -17.4375 C 13.679688 -16.332031 14.773438 -15.644531 16.359375 -15.375 C 17.835938 -15.113281 19.191406 -15.378906 20.421875 -16.171875 C 21.648438 -16.960938 22.375 -17.992188 22.59375 -19.265625 C 22.914062 -21.140625 22.691406 -22.804688 21.921875 -24.265625 C 21.148438 -25.734375 19.992188 -26.597656 18.453125 -26.859375 Z M 18.453125 -26.859375 "/></g></g></g><g fill="#0474d8" fill-opacity="1"><g transform="translate(267.26333, 218.982371)"><g><path d="M 29.40625 -15.40625 C 28.238281 -8.582031 25.929688 -3.734375 22.484375 -0.859375 C 19.035156 2.015625 14.398438 2.957031 8.578125 1.96875 C 6.523438 1.613281 4.976562 1.234375 3.9375 0.828125 L 4.953125 -5.046875 C 6.222656 -4.492188 7.582031 -4.09375 9.03125 -3.84375 C 11.488281 -3.414062 13.566406 -3.425781 15.265625 -3.875 C 16.972656 -4.332031 18.378906 -5.257812 19.484375 -6.65625 C 20.585938 -8.050781 21.429688 -10.085938 22.015625 -12.765625 L 21.71875 -12.8125 C 20.5625 -11.488281 19.328125 -10.628906 18.015625 -10.234375 C 16.710938 -9.847656 15.160156 -9.804688 13.359375 -10.109375 C 10.347656 -10.628906 8.140625 -12.003906 6.734375 -14.234375 C 5.328125 -16.460938 4.921875 -19.300781 5.515625 -22.75 C 6.148438 -26.457031 7.703125 -29.207031 10.171875 -31 C 12.648438 -32.800781 15.707031 -33.390625 19.34375 -32.765625 C 21.894531 -32.328125 24.023438 -31.34375 25.734375 -29.8125 C 27.453125 -28.289062 28.628906 -26.296875 29.265625 -23.828125 C 29.898438 -21.367188 29.945312 -18.5625 29.40625 -15.40625 Z M 18.453125 -26.859375 C 16.953125 -27.117188 15.6875 -26.800781 14.65625 -25.90625 C 13.625 -25.007812 12.941406 -23.578125 12.609375 -21.609375 C 12.328125 -19.941406 12.484375 -18.550781 13.078125 -17.4375 C 13.679688 -16.332031 14.773438 -15.644531 16.359375 -15.375 C 17.835938 -15.113281 19.191406 -15.378906 20.421875 -16.171875 C 21.648438 -16.960938 22.375 -17.992188 22.59375 -19.265625 C 22.914062 -21.140625 22.691406 -22.804688 21.921875 -24.265625 C 21.148438 -25.734375 19.992188 -26.597656 18.453125 -26.859375 Z M 18.453125 -26.859375 "/></g></g></g><g fill="#0474d8" fill-opacity="1"><g transform="translate(294.953904, 223.721281)"><g><path d="M 18.328125 -19.640625 C 21.679688 -19.066406 24.1875 -17.671875 25.84375 -15.453125 C 27.507812 -13.242188 28.0625 -10.5 27.5 -7.21875 C 26.832031 -3.351562 25.128906 -0.582031 22.390625 1.09375 C 19.648438 2.78125 16.0625 3.242188 11.625 2.484375 C 7.769531 1.828125 4.765625 0.664062 2.609375 -1 L 3.703125 -7.328125 C 4.828125 -6.453125 6.179688 -5.660156 7.765625 -4.953125 C 9.359375 -4.242188 10.894531 -3.765625 12.375 -3.515625 C 16.851562 -2.742188 19.40625 -4.191406 20.03125 -7.859375 C 20.625 -11.347656 18.609375 -13.488281 13.984375 -14.28125 C 13.140625 -14.425781 12.195312 -14.5 11.15625 -14.5 C 10.125 -14.507812 9.273438 -14.484375 8.609375 -14.421875 L 5.953125 -16.46875 L 10.28125 -33.890625 L 29.0625 -30.671875 L 28 -24.46875 L 15.640625 -26.59375 L 13.859375 -19.90625 L 14.703125 -19.921875 C 15.691406 -19.972656 16.898438 -19.878906 18.328125 -19.640625 Z M 18.328125 -19.640625 "/></g></g></g></svg>