<svg xmlns="http://www.w3.org/2000/svg" xmlns:xlink="http://www.w3.org/1999/xlink" width="20" zoomAndPan="magnify" viewBox="0 0 810 1439.999935" height="20" preserveAspectRatio="xMidYMid meet" version="1.0"><defs><clipPath id="3e7a66a61f"><path d="M 48.808594 487 L 761 487 L 761 953 L 48.808594 953 Z M 48.808594 487 " clip-rule="nonzero"/></clipPath></defs><g clip-path="url(#3e7a66a61f)"><path fill="#fff" d="M 720.488281 487.421875 L 89.023438 487.421875 C 87.699219 487.421875 86.375 487.488281 85.058594 487.621094 C 83.738281 487.75 82.429688 487.945312 81.128906 488.203125 C 79.832031 488.464844 78.546875 488.785156 77.28125 489.171875 C 76.011719 489.558594 74.765625 490.003906 73.542969 490.511719 C 72.316406 491.019531 71.121094 491.582031 69.953125 492.207031 C 68.785156 492.832031 67.648438 493.511719 66.546875 494.25 C 65.445312 494.984375 64.382812 495.773438 63.359375 496.613281 C 62.335938 497.453125 61.355469 498.339844 60.417969 499.277344 C 59.480469 500.214844 58.589844 501.191406 57.75 502.214844 C 56.910156 503.238281 56.121094 504.300781 55.382812 505.402344 C 54.648438 506.503906 53.96875 507.636719 53.34375 508.804688 C 52.71875 509.972656 52.152344 511.167969 51.644531 512.390625 C 51.136719 513.613281 50.6875 514.859375 50.304688 516.125 C 49.917969 517.390625 49.59375 518.675781 49.335938 519.972656 C 49.074219 521.269531 48.878906 522.578125 48.75 523.898438 C 48.617188 525.214844 48.550781 526.535156 48.550781 527.859375 L 48.550781 912.40625 C 48.550781 913.730469 48.617188 915.050781 48.75 916.371094 C 48.878906 917.6875 49.074219 918.996094 49.335938 920.292969 C 49.59375 921.59375 49.917969 922.875 50.304688 924.140625 C 50.6875 925.40625 51.136719 926.652344 51.644531 927.875 C 52.152344 929.097656 52.71875 930.292969 53.34375 931.460938 C 53.96875 932.628906 54.648438 933.761719 55.382812 934.863281 C 56.121094 935.964844 56.910156 937.027344 57.75 938.050781 C 58.589844 939.074219 59.480469 940.050781 60.417969 940.988281 C 61.355469 941.925781 62.335938 942.8125 63.359375 943.652344 C 64.382812 944.492188 65.445312 945.28125 66.546875 946.015625 C 67.648438 946.753906 68.785156 947.433594 69.953125 948.058594 C 71.121094 948.683594 72.316406 949.25 73.542969 949.753906 C 74.765625 950.261719 76.011719 950.710938 77.28125 951.09375 C 78.546875 951.480469 79.832031 951.800781 81.128906 952.0625 C 82.429688 952.320312 83.738281 952.515625 85.058594 952.648438 C 86.375 952.777344 87.699219 952.84375 89.023438 952.84375 L 720.488281 952.84375 C 721.8125 952.84375 723.136719 952.777344 724.453125 952.648438 C 725.773438 952.515625 727.082031 952.320312 728.382812 952.0625 C 729.679688 951.804688 730.964844 951.480469 732.234375 951.097656 C 733.5 950.710938 734.746094 950.265625 735.972656 949.757812 C 737.195312 949.25 738.390625 948.683594 739.5625 948.058594 C 740.730469 947.433594 741.863281 946.753906 742.964844 946.019531 C 744.066406 945.285156 745.132812 944.496094 746.15625 943.65625 C 747.179688 942.816406 748.160156 941.925781 749.097656 940.992188 C 750.035156 940.054688 750.925781 939.074219 751.765625 938.050781 C 752.605469 937.027344 753.394531 935.964844 754.132812 934.867188 C 754.867188 933.765625 755.550781 932.628906 756.175781 931.464844 C 756.800781 930.296875 757.367188 929.101562 757.875 927.878906 C 758.382812 926.652344 758.828125 925.410156 759.214844 924.140625 C 759.601562 922.875 759.921875 921.59375 760.183594 920.292969 C 760.441406 918.996094 760.636719 917.6875 760.769531 916.371094 C 760.898438 915.050781 760.964844 913.730469 760.96875 912.40625 L 760.96875 527.859375 C 760.964844 526.535156 760.898438 525.214844 760.769531 523.894531 C 760.636719 522.578125 760.441406 521.269531 760.183594 519.972656 C 759.921875 518.671875 759.601562 517.390625 759.214844 516.125 C 758.828125 514.855469 758.382812 513.613281 757.875 512.390625 C 757.367188 511.167969 756.800781 509.972656 756.175781 508.804688 C 755.550781 507.636719 754.867188 506.5 754.132812 505.402344 C 753.394531 504.300781 752.605469 503.238281 751.765625 502.214844 C 750.925781 501.191406 750.035156 500.210938 749.097656 499.273438 C 748.160156 498.339844 747.179688 497.449219 746.15625 496.609375 C 745.132812 495.769531 744.066406 494.984375 742.964844 494.246094 C 741.863281 493.511719 740.730469 492.832031 739.5625 492.207031 C 738.390625 491.582031 737.195312 491.015625 735.972656 490.507812 C 734.746094 490 733.5 489.554688 732.234375 489.171875 C 730.964844 488.785156 729.679688 488.464844 728.382812 488.203125 C 727.082031 487.945312 725.773438 487.75 724.453125 487.617188 C 723.136719 487.488281 721.8125 487.421875 720.488281 487.421875 Z M 516.722656 720.132812 L 739.039062 522.128906 C 739.652344 523.988281 739.972656 525.898438 740 527.859375 L 740 912.40625 C 739.972656 914.367188 739.652344 916.277344 739.039062 918.136719 Z M 720.464844 508.375 C 721.207031 508.40625 721.945312 508.480469 722.679688 508.597656 L 417.667969 780.238281 C 416.78125 781.027344 415.832031 781.730469 414.820312 782.34375 C 413.808594 782.960938 412.75 783.480469 411.640625 783.902344 C 410.535156 784.324219 409.398438 784.640625 408.230469 784.855469 C 407.066406 785.070312 405.890625 785.179688 404.703125 785.179688 C 403.519531 785.179688 402.34375 785.070312 401.179688 784.855469 C 400.011719 784.640625 398.875 784.324219 397.769531 783.902344 C 396.660156 783.480469 395.601562 782.960938 394.589844 782.34375 C 393.574219 781.730469 392.628906 781.027344 391.742188 780.238281 L 86.8125 508.597656 C 87.546875 508.480469 88.28125 508.40625 89.023438 508.375 Z M 70.484375 918.136719 C 69.871094 916.277344 69.550781 914.367188 69.523438 912.40625 L 69.523438 527.859375 C 69.550781 525.898438 69.871094 523.988281 70.484375 522.128906 L 292.796875 720.132812 Z M 89.023438 931.90625 C 88.28125 931.875 87.546875 931.800781 86.8125 931.6875 L 308.53125 734.183594 L 377.847656 795.882812 C 378.761719 796.699219 379.714844 797.472656 380.703125 798.203125 C 381.6875 798.933594 382.707031 799.617188 383.753906 800.253906 C 384.804688 800.890625 385.878906 801.480469 386.984375 802.019531 C 388.085938 802.558594 389.210938 803.046875 390.359375 803.484375 C 391.503906 803.921875 392.671875 804.304688 393.851562 804.636719 C 395.035156 804.964844 396.230469 805.242188 397.4375 805.464844 C 398.644531 805.6875 399.859375 805.855469 401.082031 805.964844 C 402.304688 806.078125 403.53125 806.132812 404.757812 806.132812 C 405.988281 806.132812 407.210938 806.078125 408.433594 805.964844 C 409.65625 805.855469 410.871094 805.6875 412.078125 805.464844 C 413.289062 805.242188 414.484375 804.964844 415.664062 804.636719 C 416.847656 804.304688 418.011719 803.921875 419.160156 803.484375 C 420.304688 803.046875 421.429688 802.558594 422.535156 802.019531 C 423.636719 801.480469 424.714844 800.890625 425.761719 800.253906 C 426.8125 799.617188 427.828125 798.933594 428.816406 798.203125 C 429.804688 797.472656 430.753906 796.699219 431.671875 795.882812 L 500.96875 734.167969 L 722.6875 931.667969 C 721.953125 931.785156 721.214844 931.859375 720.46875 931.890625 Z M 89.023438 931.90625 " fill-opacity="1" fill-rule="nonzero"/></g></svg>