<svg xmlns="http://www.w3.org/2000/svg" xmlns:xlink="http://www.w3.org/1999/xlink" width="1080" zoomAndPan="magnify" viewBox="0 0 810 809.999993" height="1080" preserveAspectRatio="xMidYMid meet" version="1.0"><defs><clipPath id="47b5c3af1a"><path d="M 185 49.222656 L 625 49.222656 L 625 760.972656 L 185 760.972656 Z M 185 49.222656 " clip-rule="nonzero"/></clipPath></defs><g clip-path="url(#47b5c3af1a)"><path fill="#fff" d="M 404.863281 49.222656 C 401.269531 49.230469 397.679688 49.324219 394.09375 49.507812 C 390.503906 49.691406 386.925781 49.960938 383.351562 50.320312 C 379.777344 50.679688 376.210938 51.125 372.660156 51.65625 C 369.105469 52.191406 365.570312 52.808594 362.046875 53.515625 C 358.523438 54.222656 355.023438 55.015625 351.539062 55.894531 C 348.054688 56.773438 344.59375 57.734375 341.160156 58.78125 C 337.722656 59.832031 334.3125 60.960938 330.933594 62.175781 C 327.550781 63.390625 324.203125 64.6875 320.886719 66.066406 C 317.566406 67.445312 314.285156 68.90625 311.039062 70.445312 C 307.792969 71.984375 304.585938 73.605469 301.417969 75.300781 C 298.253906 77 295.128906 78.773438 292.050781 80.621094 C 288.96875 82.472656 285.9375 84.398438 282.949219 86.398438 C 279.964844 88.394531 277.027344 90.464844 274.144531 92.609375 C 271.261719 94.75 268.429688 96.964844 265.652344 99.246094 C 262.875 101.527344 260.15625 103.875 257.496094 106.289062 C 254.835938 108.707031 252.234375 111.183594 249.695312 113.726562 C 247.152344 116.269531 244.675781 118.871094 242.265625 121.535156 C 239.851562 124.199219 237.503906 126.921875 235.226562 129.699219 C 232.945312 132.476562 230.738281 135.308594 228.59375 138.199219 C 226.453125 141.085938 224.386719 144.023438 222.386719 147.011719 C 220.390625 150 218.46875 153.035156 216.621094 156.117188 C 214.769531 159.199219 213 162.328125 211.304688 165.496094 C 209.609375 168.667969 207.992188 171.875 206.453125 175.125 C 204.914062 178.375 203.453125 181.660156 202.078125 184.980469 C 200.699219 188.300781 199.402344 191.652344 198.191406 195.035156 C 196.976562 198.417969 195.84375 201.832031 194.796875 205.269531 C 193.75 208.710938 192.789062 212.171875 191.910156 215.660156 C 191.035156 219.144531 190.242188 222.652344 189.539062 226.175781 C 188.832031 229.703125 188.210938 233.242188 187.679688 236.796875 C 187.148438 240.355469 186.703125 243.921875 186.34375 247.496094 C 185.984375 251.074219 185.714844 254.660156 185.53125 258.25 C 185.351562 261.839844 185.253906 265.433594 185.25 269.03125 C 185.25 342.296875 259.289062 464.96875 318.691406 551.636719 L 263.054688 551.636719 L 210.765625 760.972656 L 598.960938 760.972656 L 546.671875 551.636719 L 491.035156 551.636719 C 550.4375 464.96875 624.476562 342.296875 624.476562 269.03125 C 624.472656 265.433594 624.375 261.839844 624.195312 258.25 C 624.011719 254.660156 623.742188 251.074219 623.382812 247.496094 C 623.023438 243.921875 622.578125 240.355469 622.046875 236.796875 C 621.515625 233.242188 620.894531 229.703125 620.1875 226.175781 C 619.484375 222.652344 618.691406 219.144531 617.8125 215.660156 C 616.9375 212.171875 615.972656 208.710938 614.925781 205.269531 C 613.878906 201.832031 612.75 198.417969 611.535156 195.035156 C 610.324219 191.652344 609.027344 188.300781 607.648438 184.980469 C 606.269531 181.660156 604.8125 178.375 603.273438 175.125 C 601.734375 171.875 600.117188 168.667969 598.421875 165.496094 C 596.726562 162.328125 594.953125 159.199219 593.105469 156.117188 C 591.257812 153.035156 589.335938 150 587.335938 147.011719 C 585.339844 144.023438 583.269531 141.085938 581.128906 138.199219 C 578.988281 135.308594 576.777344 132.476562 574.5 129.699219 C 572.21875 126.921875 569.875 124.199219 567.460938 121.535156 C 565.046875 118.871094 562.570312 116.269531 560.03125 113.726562 C 557.492188 111.183594 554.890625 108.707031 552.230469 106.289062 C 549.566406 103.875 546.847656 101.527344 544.074219 99.246094 C 541.296875 96.964844 538.464844 94.75 535.582031 92.609375 C 532.695312 90.464844 529.761719 88.394531 526.777344 86.398438 C 523.789062 84.398438 520.757812 82.472656 517.675781 80.621094 C 514.597656 78.773438 511.472656 77 508.304688 75.300781 C 505.140625 73.605469 501.933594 71.984375 498.6875 70.445312 C 495.441406 68.90625 492.160156 67.445312 488.839844 66.066406 C 485.523438 64.6875 482.175781 63.390625 478.792969 62.175781 C 475.414062 60.960938 472.003906 59.832031 468.566406 58.78125 C 465.128906 57.734375 461.671875 56.773438 458.1875 55.894531 C 454.703125 55.015625 451.199219 54.222656 447.679688 53.515625 C 444.15625 52.808594 440.617188 52.191406 437.066406 51.65625 C 433.515625 51.125 429.949219 50.679688 426.375 50.320312 C 422.800781 49.960938 419.21875 49.691406 415.632812 49.507812 C 412.046875 49.324219 408.457031 49.230469 404.863281 49.222656 Z M 514.042969 593.503906 L 545.417969 719.105469 L 264.308594 719.105469 L 295.683594 593.503906 L 347.554688 593.503906 C 367.632812 621.554688 383.109375 641.652344 389.386719 648.351562 L 406.117188 669.703125 L 422.851562 648.351562 C 427.871094 641.652344 443.347656 621.554688 464.683594 593.503906 Z M 404.863281 600.621094 C 343.371094 517.722656 227.078125 345.648438 227.078125 269.03125 C 227.078125 266.117188 227.152344 263.207031 227.292969 260.296875 C 227.4375 257.390625 227.652344 254.488281 227.9375 251.589844 C 228.222656 248.691406 228.578125 245.800781 229.003906 242.921875 C 229.429688 240.039062 229.929688 237.171875 230.496094 234.316406 C 231.0625 231.460938 231.699219 228.617188 232.40625 225.792969 C 233.113281 222.96875 233.890625 220.164062 234.734375 217.378906 C 235.578125 214.589844 236.492188 211.824219 237.472656 209.085938 C 238.453125 206.34375 239.5 203.625 240.613281 200.9375 C 241.726562 198.246094 242.90625 195.582031 244.148438 192.953125 C 245.394531 190.320312 246.699219 187.71875 248.070312 185.148438 C 249.445312 182.582031 250.878906 180.050781 252.375 177.550781 C 253.867188 175.054688 255.425781 172.59375 257.042969 170.171875 C 258.65625 167.75 260.332031 165.371094 262.066406 163.03125 C 263.800781 160.691406 265.589844 158.398438 267.433594 156.148438 C 269.28125 153.894531 271.179688 151.691406 273.132812 149.535156 C 275.089844 147.375 277.09375 145.269531 279.152344 143.207031 C 281.207031 141.148438 283.316406 139.140625 285.472656 137.1875 C 287.625 135.230469 289.828125 133.328125 292.078125 131.480469 C 294.328125 129.632812 296.621094 127.84375 298.957031 126.109375 C 301.292969 124.375 303.671875 122.699219 306.09375 121.078125 C 308.511719 119.460938 310.96875 117.90625 313.464844 116.40625 C 315.960938 114.910156 318.492188 113.476562 321.054688 112.101562 C 323.621094 110.730469 326.21875 109.421875 328.851562 108.175781 C 331.480469 106.929688 334.140625 105.75 336.828125 104.636719 C 339.515625 103.523438 342.230469 102.472656 344.96875 101.492188 C 347.710938 100.511719 350.472656 99.597656 353.253906 98.753906 C 356.039062 97.910156 358.84375 97.132812 361.664062 96.425781 C 364.488281 95.71875 367.324219 95.078125 370.179688 94.511719 C 373.03125 93.941406 375.898438 93.445312 378.777344 93.019531 C 381.65625 92.589844 384.542969 92.234375 387.4375 91.949219 C 390.332031 91.664062 393.234375 91.449219 396.140625 91.304688 C 399.046875 91.164062 401.953125 91.09375 404.863281 91.09375 C 407.773438 91.09375 410.679688 91.164062 413.585938 91.304688 C 416.492188 91.449219 419.394531 91.664062 422.289062 91.949219 C 425.183594 92.234375 428.070312 92.589844 430.949219 93.019531 C 433.828125 93.445312 436.691406 93.941406 439.546875 94.511719 C 442.402344 95.078125 445.238281 95.71875 448.0625 96.425781 C 450.882812 97.132812 453.6875 97.910156 456.472656 98.753906 C 459.253906 99.597656 462.015625 100.511719 464.757812 101.492188 C 467.496094 102.472656 470.210938 103.523438 472.898438 104.636719 C 475.585938 105.75 478.246094 106.929688 480.875 108.175781 C 483.503906 109.421875 486.101562 110.730469 488.667969 112.101562 C 491.234375 113.476562 493.765625 114.910156 496.261719 116.40625 C 498.757812 117.90625 501.214844 119.460938 503.632812 121.078125 C 506.054688 122.699219 508.429688 124.375 510.769531 126.109375 C 513.105469 127.84375 515.398438 129.632812 517.648438 131.480469 C 519.898438 133.328125 522.097656 135.230469 524.253906 137.1875 C 526.410156 139.140625 528.515625 141.148438 530.574219 143.207031 C 532.632812 145.269531 534.636719 147.375 536.589844 149.535156 C 538.546875 151.691406 540.445312 153.894531 542.292969 156.148438 C 544.136719 158.398438 545.925781 160.691406 547.660156 163.03125 C 549.394531 165.371094 551.066406 167.75 552.683594 170.171875 C 554.300781 172.59375 555.855469 175.054688 557.351562 177.550781 C 558.847656 180.050781 560.28125 182.582031 561.652344 185.148438 C 563.023438 187.71875 564.332031 190.320312 565.578125 192.953125 C 566.820312 195.582031 568 198.246094 569.113281 200.9375 C 570.226562 203.625 571.273438 206.34375 572.253906 209.085938 C 573.234375 211.824219 574.144531 214.589844 574.992188 217.378906 C 575.835938 220.164062 576.613281 222.96875 577.316406 225.792969 C 578.023438 228.617188 578.664062 231.460938 579.230469 234.316406 C 579.796875 237.171875 580.296875 240.039062 580.722656 242.921875 C 581.148438 245.800781 581.503906 248.691406 581.789062 251.589844 C 582.074219 254.488281 582.289062 257.390625 582.433594 260.296875 C 582.574219 263.207031 582.644531 266.117188 582.644531 269.03125 C 582.644531 345.648438 466.355469 517.722656 404.863281 600.621094 Z M 404.863281 600.621094 " fill-opacity="1" fill-rule="nonzero"/></g><path fill="#fff" d="M 404.863281 195.761719 C 403.492188 195.761719 402.125 195.792969 400.757812 195.863281 C 399.390625 195.929688 398.023438 196.03125 396.664062 196.164062 C 395.300781 196.296875 393.941406 196.464844 392.585938 196.667969 C 391.234375 196.867188 389.882812 197.101562 388.542969 197.371094 C 387.199219 197.636719 385.863281 197.9375 384.535156 198.269531 C 383.207031 198.605469 381.886719 198.96875 380.578125 199.367188 C 379.265625 199.765625 377.96875 200.195312 376.679688 200.65625 C 375.390625 201.117188 374.113281 201.609375 372.847656 202.136719 C 371.582031 202.660156 370.332031 203.214844 369.09375 203.800781 C 367.855469 204.386719 366.632812 205.003906 365.425781 205.648438 C 364.21875 206.292969 363.027344 206.96875 361.851562 207.675781 C 360.675781 208.378906 359.519531 209.113281 358.382812 209.875 C 357.242188 210.632812 356.125 211.421875 355.023438 212.238281 C 353.925781 213.054688 352.847656 213.898438 351.789062 214.769531 C 350.730469 215.636719 349.691406 216.53125 348.679688 217.453125 C 347.664062 218.371094 346.671875 219.316406 345.703125 220.285156 C 344.738281 221.253906 343.792969 222.246094 342.871094 223.261719 C 341.953125 224.277344 341.058594 225.316406 340.191406 226.375 C 339.320312 227.433594 338.480469 228.515625 337.664062 229.617188 C 336.847656 230.714844 336.0625 231.835938 335.300781 232.976562 C 334.539062 234.113281 333.808594 235.273438 333.101562 236.449219 C 332.398438 237.625 331.722656 238.816406 331.078125 240.023438 C 330.433594 241.234375 329.816406 242.457031 329.234375 243.695312 C 328.648438 244.933594 328.09375 246.1875 327.570312 247.453125 C 327.042969 248.71875 326.550781 249.996094 326.089844 251.285156 C 325.628906 252.578125 325.199219 253.878906 324.804688 255.1875 C 324.40625 256.5 324.039062 257.820312 323.707031 259.152344 C 323.375 260.480469 323.074219 261.816406 322.808594 263.160156 C 322.539062 264.503906 322.308594 265.855469 322.105469 267.210938 C 321.90625 268.566406 321.738281 269.925781 321.601562 271.289062 C 321.46875 272.652344 321.367188 274.019531 321.300781 275.386719 C 321.234375 276.757812 321.199219 278.125 321.199219 279.496094 C 321.199219 280.867188 321.234375 282.238281 321.300781 283.605469 C 321.367188 284.972656 321.46875 286.339844 321.601562 287.703125 C 321.738281 289.066406 321.90625 290.425781 322.105469 291.78125 C 322.308594 293.136719 322.539062 294.488281 322.808594 295.832031 C 323.074219 297.175781 323.375 298.511719 323.707031 299.84375 C 324.039062 301.171875 324.40625 302.492188 324.804688 303.804688 C 325.199219 305.113281 325.628906 306.414062 326.089844 307.707031 C 326.550781 308.996094 327.042969 310.273438 327.570312 311.539062 C 328.09375 312.804688 328.648438 314.058594 329.234375 315.296875 C 329.816406 316.535156 330.433594 317.761719 331.078125 318.96875 C 331.722656 320.175781 332.398438 321.371094 333.101562 322.546875 C 333.808594 323.71875 334.539062 324.878906 335.300781 326.015625 C 336.0625 327.15625 336.847656 328.277344 337.664062 329.378906 C 338.480469 330.476562 339.320312 331.558594 340.191406 332.617188 C 341.058594 333.675781 341.953125 334.714844 342.871094 335.730469 C 343.792969 336.746094 344.738281 337.738281 345.703125 338.707031 C 346.671875 339.675781 347.664062 340.621094 348.679688 341.539062 C 349.691406 342.460938 350.730469 343.355469 351.789062 344.226562 C 352.847656 345.09375 353.925781 345.9375 355.023438 346.753906 C 356.125 347.570312 357.242188 348.359375 358.382812 349.121094 C 359.519531 349.882812 360.675781 350.613281 361.851562 351.320312 C 363.027344 352.023438 364.21875 352.699219 365.425781 353.34375 C 366.632812 353.992188 367.855469 354.605469 369.09375 355.191406 C 370.332031 355.777344 371.582031 356.332031 372.847656 356.859375 C 374.113281 357.382812 375.390625 357.875 376.679688 358.335938 C 377.96875 358.796875 379.265625 359.226562 380.578125 359.625 C 381.886719 360.023438 383.207031 360.390625 384.535156 360.722656 C 385.863281 361.054688 387.199219 361.355469 388.542969 361.621094 C 389.882812 361.890625 391.234375 362.125 392.585938 362.324219 C 393.941406 362.527344 395.300781 362.695312 396.664062 362.828125 C 398.023438 362.960938 399.390625 363.0625 400.757812 363.132812 C 402.125 363.199219 403.492188 363.230469 404.863281 363.230469 C 406.230469 363.230469 407.601562 363.199219 408.96875 363.132812 C 410.335938 363.0625 411.699219 362.960938 413.0625 362.828125 C 414.425781 362.695312 415.785156 362.527344 417.140625 362.324219 C 418.492188 362.125 419.84375 361.890625 421.183594 361.621094 C 422.527344 361.355469 423.863281 361.054688 425.191406 360.722656 C 426.519531 360.390625 427.839844 360.023438 429.148438 359.625 C 430.460938 359.226562 431.757812 358.796875 433.046875 358.335938 C 434.335938 357.875 435.613281 357.382812 436.878906 356.859375 C 438.144531 356.332031 439.394531 355.777344 440.632812 355.191406 C 441.871094 354.605469 443.09375 353.992188 444.300781 353.34375 C 445.507812 352.699219 446.699219 352.023438 447.875 351.320312 C 449.046875 350.613281 450.203125 349.882812 451.34375 349.121094 C 452.480469 348.359375 453.601562 347.570312 454.699219 346.753906 C 455.800781 345.9375 456.878906 345.09375 457.9375 344.226562 C 458.996094 343.355469 460.03125 342.460938 461.046875 341.539062 C 462.0625 340.621094 463.054688 339.675781 464.019531 338.707031 C 464.988281 337.738281 465.933594 336.746094 466.851562 335.730469 C 467.773438 334.714844 468.667969 333.675781 469.535156 332.617188 C 470.402344 331.558594 471.246094 330.476562 472.0625 329.378906 C 472.878906 328.277344 473.664062 327.15625 474.425781 326.015625 C 475.1875 324.878906 475.917969 323.71875 476.621094 322.546875 C 477.328125 321.371094 478 320.175781 478.648438 318.96875 C 479.292969 317.761719 479.90625 316.535156 480.492188 315.296875 C 481.078125 314.058594 481.632812 312.804688 482.15625 311.539062 C 482.679688 310.273438 483.175781 308.996094 483.636719 307.707031 C 484.097656 306.414062 484.527344 305.113281 484.921875 303.804688 C 485.320312 302.492188 485.6875 301.171875 486.019531 299.84375 C 486.351562 298.511719 486.652344 297.175781 486.917969 295.832031 C 487.183594 294.488281 487.417969 293.136719 487.621094 291.78125 C 487.820312 290.425781 487.988281 289.066406 488.121094 287.703125 C 488.257812 286.339844 488.359375 284.972656 488.425781 283.605469 C 488.492188 282.238281 488.527344 280.867188 488.527344 279.496094 C 488.527344 278.125 488.492188 276.757812 488.425781 275.386719 C 488.359375 274.019531 488.257812 272.652344 488.121094 271.289062 C 487.988281 269.925781 487.820312 268.566406 487.621094 267.210938 C 487.417969 265.855469 487.183594 264.503906 486.917969 263.160156 C 486.652344 261.816406 486.351562 260.480469 486.019531 259.152344 C 485.6875 257.820312 485.320312 256.5 484.921875 255.1875 C 484.527344 253.878906 484.097656 252.578125 483.636719 251.285156 C 483.175781 249.996094 482.679688 248.71875 482.15625 247.453125 C 481.632812 246.1875 481.078125 244.933594 480.492188 243.695312 C 479.90625 242.457031 479.292969 241.234375 478.648438 240.023438 C 478 238.816406 477.328125 237.625 476.621094 236.449219 C 475.917969 235.273438 475.1875 234.113281 474.425781 232.976562 C 473.664062 231.835938 472.878906 230.714844 472.0625 229.617188 C 471.246094 228.515625 470.402344 227.433594 469.535156 226.375 C 468.667969 225.316406 467.773438 224.277344 466.851562 223.261719 C 465.933594 222.246094 464.988281 221.253906 464.019531 220.285156 C 463.054688 219.316406 462.0625 218.371094 461.046875 217.453125 C 460.03125 216.53125 458.996094 215.636719 457.9375 214.769531 C 456.878906 213.898438 455.800781 213.054688 454.699219 212.238281 C 453.601562 211.421875 452.480469 210.632812 451.34375 209.875 C 450.203125 209.113281 449.046875 208.378906 447.875 207.675781 C 446.699219 206.96875 445.507812 206.292969 444.300781 205.648438 C 443.09375 205.003906 441.871094 204.386719 440.632812 203.800781 C 439.394531 203.214844 438.144531 202.660156 436.878906 202.136719 C 435.613281 201.609375 434.335938 201.117188 433.046875 200.65625 C 431.757812 200.195312 430.460938 199.765625 429.148438 199.367188 C 427.839844 198.96875 426.519531 198.605469 425.191406 198.269531 C 423.863281 197.9375 422.527344 197.636719 421.183594 197.371094 C 419.84375 197.101562 418.492188 196.867188 417.140625 196.667969 C 415.785156 196.464844 414.425781 196.296875 413.0625 196.164062 C 411.699219 196.03125 410.335938 195.929688 408.96875 195.863281 C 407.601562 195.792969 406.230469 195.761719 404.863281 195.761719 Z M 404.863281 321.363281 C 403.492188 321.363281 402.125 321.296875 400.761719 321.164062 C 399.398438 321.027344 398.046875 320.828125 396.703125 320.558594 C 395.359375 320.292969 394.03125 319.960938 392.71875 319.5625 C 391.410156 319.164062 390.121094 318.703125 388.855469 318.175781 C 387.589844 317.652344 386.351562 317.066406 385.144531 316.421875 C 383.9375 315.773438 382.761719 315.070312 381.621094 314.308594 C 380.484375 313.546875 379.382812 312.730469 378.324219 311.859375 C 377.265625 310.992188 376.253906 310.070312 375.285156 309.101562 C 374.316406 308.132812 373.394531 307.117188 372.527344 306.058594 C 371.65625 304.996094 370.84375 303.898438 370.082031 302.757812 C 369.320312 301.617188 368.617188 300.441406 367.972656 299.234375 C 367.324219 298.023438 366.738281 296.785156 366.214844 295.519531 C 365.691406 294.25 365.230469 292.960938 364.832031 291.648438 C 364.433594 290.335938 364.101562 289.007812 363.835938 287.664062 C 363.566406 286.320312 363.367188 284.964844 363.234375 283.601562 C 363.097656 282.234375 363.03125 280.867188 363.03125 279.496094 C 363.03125 278.125 363.097656 276.757812 363.234375 275.394531 C 363.367188 274.027344 363.566406 272.671875 363.835938 271.328125 C 364.101562 269.984375 364.433594 268.65625 364.832031 267.34375 C 365.230469 266.03125 365.691406 264.742188 366.214844 263.472656 C 366.738281 262.207031 367.324219 260.96875 367.972656 259.761719 C 368.617188 258.550781 369.320312 257.375 370.082031 256.234375 C 370.84375 255.097656 371.65625 253.996094 372.527344 252.9375 C 373.394531 251.875 374.316406 250.859375 375.285156 249.890625 C 376.253906 248.921875 377.265625 248.003906 378.324219 247.132812 C 379.382812 246.261719 380.484375 245.445312 381.621094 244.683594 C 382.761719 243.921875 383.9375 243.21875 385.144531 242.574219 C 386.351562 241.925781 387.589844 241.339844 388.855469 240.816406 C 390.121094 240.292969 391.410156 239.828125 392.71875 239.429688 C 394.03125 239.035156 395.359375 238.699219 396.703125 238.433594 C 398.046875 238.164062 399.398438 237.964844 400.761719 237.832031 C 402.125 237.695312 403.492188 237.628906 404.863281 237.628906 C 406.234375 237.628906 407.601562 237.695312 408.964844 237.832031 C 410.328125 237.964844 411.679688 238.164062 413.023438 238.433594 C 414.367188 238.699219 415.695312 239.035156 417.007812 239.429688 C 418.316406 239.828125 419.605469 240.292969 420.871094 240.816406 C 422.136719 241.339844 423.375 241.925781 424.582031 242.574219 C 425.789062 243.21875 426.964844 243.921875 428.101562 244.683594 C 429.242188 245.445312 430.339844 246.261719 431.402344 247.132812 C 432.460938 248.003906 433.472656 248.921875 434.441406 249.890625 C 435.410156 250.859375 436.328125 251.875 437.199219 252.9375 C 438.066406 253.996094 438.882812 255.097656 439.644531 256.234375 C 440.40625 257.375 441.109375 258.550781 441.753906 259.761719 C 442.402344 260.96875 442.984375 262.207031 443.511719 263.472656 C 444.035156 264.742188 444.496094 266.03125 444.894531 267.34375 C 445.289062 268.65625 445.625 269.984375 445.890625 271.328125 C 446.15625 272.671875 446.359375 274.027344 446.492188 275.394531 C 446.628906 276.757812 446.695312 278.125 446.695312 279.496094 C 446.695312 280.867188 446.628906 282.234375 446.492188 283.601562 C 446.359375 284.964844 446.15625 286.320312 445.890625 287.664062 C 445.625 289.007812 445.289062 290.335938 444.894531 291.648438 C 444.496094 292.960938 444.035156 294.25 443.511719 295.519531 C 442.984375 296.785156 442.402344 298.023438 441.753906 299.234375 C 441.109375 300.441406 440.40625 301.617188 439.644531 302.757812 C 438.882812 303.898438 438.066406 304.996094 437.199219 306.058594 C 436.328125 307.117188 435.410156 308.132812 434.441406 309.101562 C 433.472656 310.070312 432.460938 310.992188 431.402344 311.859375 C 430.339844 312.730469 429.242188 313.546875 428.101562 314.308594 C 426.964844 315.070312 425.789062 315.773438 424.582031 316.421875 C 423.375 317.066406 422.136719 317.652344 420.871094 318.175781 C 419.605469 318.703125 418.316406 319.164062 417.007812 319.5625 C 415.695312 319.960938 414.367188 320.292969 413.023438 320.558594 C 411.679688 320.828125 410.328125 321.027344 408.964844 321.164062 C 407.601562 321.296875 406.234375 321.363281 404.863281 321.363281 Z M 404.863281 321.363281 " fill-opacity="1" fill-rule="nonzero"/></svg>