<svg xmlns="http://www.w3.org/2000/svg" xmlns:xlink="http://www.w3.org/1999/xlink" width="20" zoomAndPan="magnify" viewBox="0 0 810 809.999993" height="20" preserveAspectRatio="xMidYMid meet" version="1.0"><path fill="#fff" d="M 294.738281 44.6875 C 294.738281 44.6875 140.179688 46.71875 142.183594 186.796875 C 144.1875 326.871094 172.296875 450.730469 218.46875 519.753906 C 264.636719 588.78125 383.046875 769.472656 517.546875 751.207031 C 517.546875 751.207031 583.789062 736.988281 633.957031 704.5 L 471.375 576.59375 C 471.375 576.59375 423.203125 607.050781 393.09375 566.441406 C 362.984375 525.835938 268.644531 337.039062 268.644531 337.039062 C 268.644531 337.039062 242.550781 276.125 300.765625 249.734375 Z M 294.738281 44.6875 " fill-opacity="1" fill-rule="nonzero"/><path fill="#fff" d="M 312.808594 44.6875 C 312.808594 44.6875 324.855469 40.640625 346.925781 52.8125 C 368.996094 64.984375 369.003906 75.128906 369.003906 75.128906 L 371.015625 215.226562 C 371.015625 215.226562 364.988281 223.351562 356.96875 231.457031 C 348.9375 239.574219 322.84375 251.769531 318.820312 243.640625 C 314.820312 235.53125 312.808594 44.6875 312.808594 44.6875 Z M 312.808594 44.6875 " fill-opacity="1" fill-rule="nonzero"/><path fill="#fff" d="M 484.894531 561.625 L 529.589844 538.019531 C 529.589844 538.019531 539.625 536 555.675781 546.136719 C 571.738281 556.3125 656.042969 623.308594 656.042969 623.308594 C 656.042969 623.308594 670.09375 635.488281 666.078125 649.699219 C 662.0625 663.910156 652.03125 694.367188 652.03125 694.367188 Z M 484.894531 561.625 " fill-opacity="1" fill-rule="nonzero"/></svg>